<svg width="163" height="117" viewBox="0 0 163 117" fill="none" xmlns="http://www.w3.org/2000/svg">
<path fill-rule="evenodd" clip-rule="evenodd" d="M7 0C3.13401 0 0 3.13401 0 7V110C0 113.866 3.13401 117 7 117H72V95H95V117H156C159.866 117 163 113.866 163 110V7C163 3.13401 159.866 0 156 0H7Z" fill="#025700"/>
<rect x="28" y="33" width="106" height="52" fill="white" fill-opacity="0.51"/>
<ellipse cx="72.1442" cy="71.0615" rx="7.06154" ry="7.2371" transform="rotate(90 72.1442 71.0615)" fill="#C4C4C4"/>
<ellipse cx="51.2371" cy="71.0615" rx="7.06154" ry="7.2371" transform="rotate(90 51.2371 71.0615)" fill="#C4C4C4"/>
<ellipse cx="114.237" cy="71.0615" rx="7.06154" ry="7.2371" transform="rotate(90 114.237 71.0615)" fill="#C4C4C4"/>
<ellipse cx="93.2371" cy="71.0615" rx="7.06154" ry="7.2371" transform="rotate(90 93.2371 71.0615)" fill="#C4C4C4"/>
<ellipse cx="71.1442" cy="46.0615" rx="7.06154" ry="7.2371" transform="rotate(90 71.1442 46.0615)" fill="#C4C4C4"/>
<ellipse cx="50.2371" cy="46.0615" rx="7.06154" ry="7.2371" transform="rotate(90 50.2371 46.0615)" fill="#C4C4C4"/>
<ellipse cx="113.763" cy="46.8461" rx="7.06154" ry="7.2371" transform="rotate(90 113.763 46.8461)" fill="#C4C4C4"/>
<ellipse cx="92.8558" cy="46.8461" rx="7.06154" ry="7.2371" transform="rotate(90 92.8558 46.8461)" fill="#C4C4C4"/>
<circle cx="129" cy="12" r="5" fill="#C4C4C4"/>
<circle cx="110" cy="12" r="5" fill="#C4C4C4"/>
<circle cx="110" cy="12" r="5" fill="#C4C4C4"/>
<circle cx="91" cy="12" r="5" fill="#C4C4C4"/>
<circle cx="72" cy="12" r="5" fill="#C4C4C4"/>
<circle cx="53" cy="12" r="5" fill="#C4C4C4"/>
<circle cx="34" cy="12" r="5" fill="#C4C4C4"/>
</svg>
