<svg width="128" height="185" viewBox="0 0 128 185" fill="none" xmlns="http://www.w3.org/2000/svg">
<rect width="128" height="185" rx="9" fill="#6F3500"/>
<path d="M52.5117 78.3184C52.5117 78.0254 52.4004 77.7988 52.1777 77.6387C51.959 77.4746 51.5742 77.334 51.0234 77.2168C50.4766 77.0996 50.041 76.959 49.7168 76.7949C49.3965 76.6309 49.1582 76.4355 49.002 76.209C48.8496 75.9824 48.7734 75.7129 48.7734 75.4004C48.7734 74.8809 48.9922 74.4414 49.4297 74.082C49.8711 73.7227 50.4336 73.543 51.1172 73.543C51.8359 73.543 52.418 73.7285 52.8633 74.0996C53.3125 74.4707 53.5371 74.9453 53.5371 75.5234H52.4473C52.4473 75.2266 52.3203 74.9707 52.0664 74.7559C51.8164 74.541 51.5 74.4336 51.1172 74.4336C50.7227 74.4336 50.4141 74.5195 50.1914 74.6914C49.9688 74.8633 49.8574 75.0879 49.8574 75.3652C49.8574 75.627 49.9609 75.8242 50.168 75.957C50.375 76.0898 50.748 76.2168 51.2871 76.3379C51.8301 76.459 52.2695 76.6035 52.6055 76.7715C52.9414 76.9395 53.1895 77.1426 53.3496 77.3809C53.5137 77.6152 53.5957 77.9023 53.5957 78.2422C53.5957 78.8086 53.3691 79.2637 52.916 79.6074C52.4629 79.9473 51.875 80.1172 51.1523 80.1172C50.6445 80.1172 50.1953 80.0273 49.8047 79.8477C49.4141 79.668 49.1074 79.418 48.8848 79.0977C48.666 78.7734 48.5566 78.4238 48.5566 78.0488H49.6406C49.6602 78.4121 49.8047 78.7012 50.0742 78.916C50.3477 79.127 50.707 79.2324 51.1523 79.2324C51.5625 79.2324 51.8906 79.1504 52.1367 78.9863C52.3867 78.8184 52.5117 78.5957 52.5117 78.3184ZM57.6387 80.1172C56.7793 80.1172 56.0801 79.8359 55.541 79.2734C55.002 78.707 54.7324 77.9512 54.7324 77.0059V76.8066C54.7324 76.1777 54.8516 75.6172 55.0898 75.125C55.332 74.6289 55.668 74.2422 56.0977 73.9648C56.5312 73.6836 57 73.543 57.5039 73.543C58.3281 73.543 58.9688 73.8145 59.4258 74.3574C59.8828 74.9004 60.1113 75.6777 60.1113 76.6895V77.1406H55.8164C55.832 77.7656 56.0137 78.2715 56.3613 78.6582C56.7129 79.041 57.1582 79.2324 57.6973 79.2324C58.0801 79.2324 58.4043 79.1543 58.6699 78.998C58.9355 78.8418 59.168 78.6348 59.3672 78.377L60.0293 78.8926C59.498 79.709 58.7012 80.1172 57.6387 80.1172ZM57.5039 74.4336C57.0664 74.4336 56.6992 74.5938 56.4023 74.9141C56.1055 75.2305 55.9219 75.6758 55.8516 76.25H59.0273V76.168C58.9961 75.6172 58.8477 75.1914 58.582 74.8906C58.3164 74.5859 57.957 74.4336 57.5039 74.4336ZM62.5488 80H61.4648V71H62.5488V80ZM66.9199 80.1172C66.0605 80.1172 65.3613 79.8359 64.8223 79.2734C64.2832 78.707 64.0137 77.9512 64.0137 77.0059V76.8066C64.0137 76.1777 64.1328 75.6172 64.3711 75.125C64.6133 74.6289 64.9492 74.2422 65.3789 73.9648C65.8125 73.6836 66.2812 73.543 66.7852 73.543C67.6094 73.543 68.25 73.8145 68.707 74.3574C69.1641 74.9004 69.3926 75.6777 69.3926 76.6895V77.1406H65.0977C65.1133 77.7656 65.2949 78.2715 65.6426 78.6582C65.9941 79.041 66.4395 79.2324 66.9785 79.2324C67.3613 79.2324 67.6855 79.1543 67.9512 78.998C68.2168 78.8418 68.4492 78.6348 68.6484 78.377L69.3105 78.8926C68.7793 79.709 67.9824 80.1172 66.9199 80.1172ZM66.7852 74.4336C66.3477 74.4336 65.9805 74.5938 65.6836 74.9141C65.3867 75.2305 65.2031 75.6758 65.1328 76.25H68.3086V76.168C68.2773 75.6172 68.1289 75.1914 67.8633 74.8906C67.5977 74.5859 67.2383 74.4336 66.7852 74.4336ZM73.1953 79.2324C73.582 79.2324 73.9199 79.1152 74.209 78.8809C74.498 78.6465 74.6582 78.3535 74.6895 78.002H75.7148C75.6953 78.3652 75.5703 78.7109 75.3398 79.0391C75.1094 79.3672 74.8008 79.6289 74.4141 79.8242C74.0312 80.0195 73.625 80.1172 73.1953 80.1172C72.332 80.1172 71.6445 79.8301 71.1328 79.2559C70.625 78.6777 70.3711 77.8887 70.3711 76.8887V76.707C70.3711 76.0898 70.4844 75.541 70.7109 75.0605C70.9375 74.5801 71.2617 74.207 71.6836 73.9414C72.1094 73.6758 72.6113 73.543 73.1895 73.543C73.9004 73.543 74.4902 73.7559 74.959 74.1816C75.4316 74.6074 75.6836 75.1602 75.7148 75.8398H74.6895C74.6582 75.4297 74.502 75.0938 74.2207 74.832C73.9434 74.5664 73.5996 74.4336 73.1895 74.4336C72.6387 74.4336 72.2109 74.6328 71.9062 75.0312C71.6055 75.4258 71.4551 75.998 71.4551 76.748V76.9531C71.4551 77.6836 71.6055 78.2461 71.9062 78.6406C72.207 79.0352 72.6367 79.2324 73.1953 79.2324ZM78.4043 72.125V73.6602H79.5879V74.498H78.4043V78.4297C78.4043 78.6836 78.457 78.875 78.5625 79.0039C78.668 79.1289 78.8477 79.1914 79.1016 79.1914C79.2266 79.1914 79.3984 79.168 79.6172 79.1211V80C79.332 80.0781 79.0547 80.1172 78.7852 80.1172C78.3008 80.1172 77.9355 79.9707 77.6895 79.6777C77.4434 79.3848 77.3203 78.9688 77.3203 78.4297V74.498H76.166V73.6602H77.3203V72.125H78.4043Z" fill="white"/>
<path d="M56.5117 152.318C56.5117 152.025 56.4004 151.799 56.1777 151.639C55.959 151.475 55.5742 151.334 55.0234 151.217C54.4766 151.1 54.041 150.959 53.7168 150.795C53.3965 150.631 53.1582 150.436 53.002 150.209C52.8496 149.982 52.7734 149.713 52.7734 149.4C52.7734 148.881 52.9922 148.441 53.4297 148.082C53.8711 147.723 54.4336 147.543 55.1172 147.543C55.8359 147.543 56.418 147.729 56.8633 148.1C57.3125 148.471 57.5371 148.945 57.5371 149.523H56.4473C56.4473 149.227 56.3203 148.971 56.0664 148.756C55.8164 148.541 55.5 148.434 55.1172 148.434C54.7227 148.434 54.4141 148.52 54.1914 148.691C53.9688 148.863 53.8574 149.088 53.8574 149.365C53.8574 149.627 53.9609 149.824 54.168 149.957C54.375 150.09 54.748 150.217 55.2871 150.338C55.8301 150.459 56.2695 150.604 56.6055 150.771C56.9414 150.939 57.1895 151.143 57.3496 151.381C57.5137 151.615 57.5957 151.902 57.5957 152.242C57.5957 152.809 57.3691 153.264 56.916 153.607C56.4629 153.947 55.875 154.117 55.1523 154.117C54.6445 154.117 54.1953 154.027 53.8047 153.848C53.4141 153.668 53.1074 153.418 52.8848 153.098C52.666 152.773 52.5566 152.424 52.5566 152.049H53.6406C53.6602 152.412 53.8047 152.701 54.0742 152.916C54.3477 153.127 54.707 153.232 55.1523 153.232C55.5625 153.232 55.8906 153.15 56.1367 152.986C56.3867 152.818 56.5117 152.596 56.5117 152.318ZM60.4785 146.125V147.66H61.6621V148.498H60.4785V152.43C60.4785 152.684 60.5312 152.875 60.6367 153.004C60.7422 153.129 60.9219 153.191 61.1758 153.191C61.3008 153.191 61.4727 153.168 61.6914 153.121V154C61.4062 154.078 61.1289 154.117 60.8594 154.117C60.375 154.117 60.0098 153.971 59.7637 153.678C59.5176 153.385 59.3945 152.969 59.3945 152.43V148.498H58.2402V147.66H59.3945V146.125H60.4785ZM66.8477 154C66.7852 153.875 66.7344 153.652 66.6953 153.332C66.1914 153.855 65.5898 154.117 64.8906 154.117C64.2656 154.117 63.752 153.941 63.3496 153.59C62.9512 153.234 62.752 152.785 62.752 152.242C62.752 151.582 63.002 151.07 63.502 150.707C64.0059 150.34 64.7129 150.156 65.623 150.156H66.6777V149.658C66.6777 149.279 66.5645 148.979 66.3379 148.756C66.1113 148.529 65.7773 148.416 65.3359 148.416C64.9492 148.416 64.625 148.514 64.3633 148.709C64.1016 148.904 63.9707 149.141 63.9707 149.418H62.8809C62.8809 149.102 62.9922 148.797 63.2148 148.504C63.4414 148.207 63.7461 147.973 64.1289 147.801C64.5156 147.629 64.9395 147.543 65.4004 147.543C66.1309 147.543 66.7031 147.727 67.1172 148.094C67.5312 148.457 67.7461 148.959 67.7617 149.6V152.518C67.7617 153.1 67.8359 153.562 67.9844 153.906V154H66.8477ZM65.0488 153.174C65.3887 153.174 65.7109 153.086 66.0156 152.91C66.3203 152.734 66.541 152.506 66.6777 152.225V150.924H65.8281C64.5 150.924 63.8359 151.312 63.8359 152.09C63.8359 152.43 63.9492 152.695 64.1758 152.887C64.4023 153.078 64.6934 153.174 65.0488 153.174ZM72.5254 148.633C72.3613 148.605 72.1836 148.592 71.9922 148.592C71.2812 148.592 70.7988 148.895 70.5449 149.5V154H69.4609V147.66H70.5156L70.5332 148.393C70.8887 147.826 71.3926 147.543 72.0449 147.543C72.2559 147.543 72.416 147.57 72.5254 147.625V148.633ZM75.291 146.125V147.66H76.4746V148.498H75.291V152.43C75.291 152.684 75.3438 152.875 75.4492 153.004C75.5547 153.129 75.7344 153.191 75.9883 153.191C76.1133 153.191 76.2852 153.168 76.5039 153.121V154C76.2188 154.078 75.9414 154.117 75.6719 154.117C75.1875 154.117 74.8223 153.971 74.5762 153.678C74.3301 153.385 74.207 152.969 74.207 152.43V148.498H73.0527V147.66H74.207V146.125H75.291Z" fill="white"/>
<path d="M58.7817 19.5524C59.0747 19.555 59.3022 19.4456 59.4643 19.2244C59.6303 19.0071 59.7742 18.6235 59.8962 18.0738C60.0182 17.528 60.1626 17.0937 60.3295 16.7709C60.4963 16.452 60.6937 16.2154 60.9216 16.0612C61.1495 15.9108 61.4197 15.837 61.7322 15.8397C62.2517 15.8443 62.6892 16.0668 63.0448 16.5075C63.4003 16.952 63.5751 17.516 63.5691 18.1996C63.5628 18.9183 63.3722 19.4987 62.9972 19.9408C62.6222 20.3867 62.1457 20.6072 61.5676 20.6021L61.5771 19.5123C61.874 19.5149 62.1309 19.3902 62.348 19.1382C62.565 18.8901 62.6752 18.5746 62.6785 18.1918C62.6819 17.7973 62.5987 17.488 62.4288 17.2638C62.2589 17.0397 62.0352 16.9264 61.7579 16.924C61.4962 16.9217 61.298 17.0235 61.1634 17.2293C61.0288 17.4352 60.8986 17.8071 60.7728 18.3451C60.647 18.887 60.4986 19.3252 60.3277 19.6596C60.1568 19.9941 59.9515 20.2404 59.7119 20.3984C59.4761 20.5605 59.1883 20.64 58.8484 20.637C58.282 20.6321 57.829 20.4015 57.4892 19.9454C57.1533 19.4894 56.9885 18.9 56.9948 18.1774C56.9992 17.6696 57.093 17.2212 57.2761 16.8321C57.4592 16.4431 57.7119 16.1386 58.0341 15.9188C58.3602 15.7029 58.7108 15.5966 59.0857 15.5998L59.0763 16.6838C58.7129 16.7001 58.4225 16.8421 58.2054 17.1098C57.992 17.3814 57.8834 17.7398 57.8795 18.1851C57.876 18.5952 57.9551 18.9241 58.117 19.1716C58.2828 19.423 58.5044 19.55 58.7817 19.5524ZM64.9402 23.5731L63.4051 23.5597L63.3948 24.7432L62.5569 24.7359L62.5673 23.5524L58.6358 23.5181C58.3819 23.5159 58.19 23.5669 58.0602 23.6713C57.9343 23.7756 57.8702 23.9548 57.868 24.2087C57.8669 24.3337 57.8888 24.5057 57.9338 24.7249L57.0549 24.7172C56.9793 24.4314 56.9427 24.1537 56.945 23.8842C56.9492 23.3998 57.0989 23.0359 57.394 22.7924C57.6891 22.5488 58.1062 22.4294 58.6452 22.4341L62.5767 22.4684L62.5868 21.3142L63.4247 21.3215L63.4146 22.4758L64.9497 22.4891L64.9402 23.5731Z" fill="white"/>
<path d="M40.3571 15.6168C41.3454 15.6254 42.1285 15.8608 42.7065 16.3229C43.2885 16.785 43.5761 17.393 43.5696 18.1469C43.5628 18.9203 43.2841 19.5214 42.7335 19.9502L43.4361 20.0091L43.4275 20.9993L37.2402 20.9453C36.4199 20.9381 35.7756 20.6883 35.3072 20.1959C34.8388 19.7075 34.6082 19.0531 34.6153 18.2328C34.6193 17.7758 34.7209 17.3294 34.92 16.8936C35.1191 16.4578 35.3896 16.1262 35.7315 15.8987L36.3769 16.4669C35.7987 16.9267 35.5066 17.4925 35.5007 18.1644C35.4961 18.6917 35.641 19.1031 35.9353 19.3987C36.2296 19.6981 36.6462 19.8502 37.1853 19.8549L37.7302 19.8597C37.234 19.4217 36.9891 18.8278 36.9957 18.0778C37.0022 17.3356 37.3062 16.7367 37.9079 16.281C38.5095 15.8292 39.3259 15.6078 40.3571 15.6168ZM40.2246 16.7055C39.5098 16.6993 38.946 16.8409 38.5333 17.1302C38.1245 17.4196 37.9178 17.828 37.9132 18.3553C37.9073 19.0389 38.2134 19.5435 38.8317 19.8693L41.7261 19.8945C42.3344 19.5678 42.6415 19.0724 42.6473 18.4084C42.6519 17.881 42.4504 17.4672 42.0429 17.1667C41.6353 16.8663 41.0292 16.7125 40.2246 16.7055ZM43.4042 23.6652L42.6071 23.6934C43.2122 24.1831 43.5113 24.8185 43.5045 25.5997C43.4928 26.9395 42.7311 27.6087 41.2193 27.6072L37.03 27.5706L37.0395 26.4867L41.2346 26.5233C41.6917 26.5234 42.0305 26.4209 42.251 26.2158C42.4716 26.0145 42.5837 25.6972 42.5875 25.2636C42.5906 24.912 42.4995 24.6026 42.3143 24.3354C42.1292 24.0681 41.8849 23.859 41.5815 23.7079L37.0641 23.6684L37.0735 22.5845L43.4131 22.6398L43.4042 23.6652ZM40.2406 28.9698C41.2132 28.9783 41.9924 29.2156 42.5782 29.6816C43.1679 30.1477 43.4595 30.7538 43.453 31.4999C43.4465 32.242 43.1875 32.8277 42.6759 33.2568L45.9805 33.2857L45.971 34.3696L36.9714 34.2911L36.9801 33.295L37.6602 33.2482C37.1328 32.81 36.8724 32.2042 36.8792 31.4308C36.8856 30.6964 37.1916 30.0995 37.7972 29.6399C38.4027 29.1842 39.1899 28.9606 40.1586 28.9691L40.2406 28.9698ZM40.1081 30.0527C39.3894 30.0464 38.8256 30.1899 38.4168 30.4832C38.008 30.7766 37.8013 31.1849 37.7967 31.7083C37.7907 32.3958 38.0949 32.9004 38.7093 33.2222L41.6213 33.2476C42.2218 32.9286 42.5249 32.4332 42.5308 31.7614C42.5354 31.2301 42.334 30.8143 41.9264 30.5139C41.5189 30.2134 40.9128 30.0597 40.1081 30.0527Z" fill="white"/>
<path d="M18.7817 19.5524C19.0747 19.555 19.3022 19.4456 19.4643 19.2244C19.6303 19.0071 19.7742 18.6235 19.8962 18.0738C20.0182 17.528 20.1626 17.0937 20.3295 16.7709C20.4963 16.452 20.6937 16.2155 20.9216 16.0612C21.1495 15.9108 21.4197 15.837 21.7322 15.8397C22.2517 15.8443 22.6892 16.0669 23.0448 16.5075C23.4003 16.952 23.5751 17.516 23.5691 18.1996C23.5628 18.9183 23.3722 19.4987 22.9972 19.9408C22.6222 20.3867 22.1457 20.6072 21.5676 20.6022L21.5771 19.5124C21.874 19.5149 22.1309 19.3902 22.348 19.1382C22.565 18.8901 22.6752 18.5746 22.6785 18.1918C22.6819 17.7973 22.5987 17.488 22.4288 17.2638C22.2589 17.0397 22.0352 16.9264 21.7579 16.924C21.4962 16.9217 21.298 17.0235 21.1634 17.2294C21.0288 17.4352 20.8986 17.8072 20.7728 18.3451C20.647 18.887 20.4986 19.3252 20.3277 19.6597C20.1568 19.9941 19.9515 20.2404 19.7119 20.3985C19.4761 20.5605 19.1883 20.64 18.8484 20.637C18.282 20.6321 17.829 20.4016 17.4892 19.9454C17.1533 19.4894 16.9885 18.9 16.9948 18.1774C16.9992 17.6696 17.093 17.2212 17.2761 16.8321C17.4592 16.4431 17.7119 16.1387 18.0341 15.9188C18.3602 15.7029 18.7108 15.5966 19.0857 15.5998L19.0763 16.6838C18.7129 16.7001 18.4225 16.8421 18.2054 17.1098C17.992 17.3814 17.8834 17.7398 17.8795 18.1851C17.876 18.5953 17.9551 18.9241 18.117 19.1716C18.2828 19.4231 18.5044 19.55 18.7817 19.5524ZM16.9382 24.6635C16.9457 23.8041 17.2331 23.1074 17.8002 22.5733C18.3713 22.0392 19.1295 21.7762 20.0748 21.7845L20.274 21.7862C20.9029 21.7917 21.4624 21.9157 21.9525 22.1583C22.4464 22.4048 22.8302 22.7441 23.1038 23.1762C23.3812 23.6122 23.5178 24.0822 23.5134 24.5861C23.5062 25.4103 23.2291 26.0485 22.6822 26.5008C22.1352 26.9531 21.3559 27.1748 20.3442 27.1659L19.8931 27.162L19.9306 22.8673C19.3055 22.8774 18.798 23.0546 18.4083 23.3989C18.0224 23.7471 17.8271 24.1907 17.8224 24.7298C17.8191 25.1126 17.8944 25.4375 18.0483 25.7045C18.2022 25.9714 18.4072 26.2056 18.6633 26.4071L18.1419 27.0647C17.3302 26.5263 16.9289 25.7259 16.9382 24.6635ZM22.6228 24.5783C22.6266 24.1408 22.4696 23.7723 22.1519 23.4726C21.8381 23.173 21.3944 22.9855 20.8208 22.9102L20.7931 26.0858L20.8752 26.0866C21.4262 26.0601 21.8533 25.9154 22.1563 25.6524C22.4633 25.3895 22.6188 25.0314 22.6228 24.5783ZM17.0125 29.5745L17.022 28.4905L26.0217 28.5691L26.0122 29.653L17.0125 29.5745Z" fill="white"/>
<path d="M89.5 149.5C89.5 163.298 78.0925 174.5 64 174.5C49.9075 174.5 38.5 163.298 38.5 149.5C38.5 135.702 49.9075 124.5 64 124.5C78.0925 124.5 89.5 135.702 89.5 149.5Z" stroke="white"/>
<path d="M89.5 149.5C89.5 163.298 78.0925 174.5 64 174.5C49.9075 174.5 38.5 163.298 38.5 149.5C38.5 135.702 49.9075 124.5 64 124.5C78.0925 124.5 89.5 135.702 89.5 149.5Z" stroke="white"/>
<path d="M89.5 149.5C89.5 163.298 78.0925 174.5 64 174.5C49.9075 174.5 38.5 163.298 38.5 149.5C38.5 135.702 49.9075 124.5 64 124.5C78.0925 124.5 89.5 135.702 89.5 149.5Z" stroke="white"/>
<path d="M89.5 149.5C89.5 163.298 78.0925 174.5 64 174.5C49.9075 174.5 38.5 163.298 38.5 149.5C38.5 135.702 49.9075 124.5 64 124.5C78.0925 124.5 89.5 135.702 89.5 149.5Z" stroke="white"/>
<path d="M89.5 149.5C89.5 163.298 78.0925 174.5 64 174.5C49.9075 174.5 38.5 163.298 38.5 149.5C38.5 135.702 49.9075 124.5 64 124.5C78.0925 124.5 89.5 135.702 89.5 149.5Z" stroke="white"/>
<path d="M89.5 75.5C89.5 89.298 78.0925 100.5 64 100.5C49.9075 100.5 38.5 89.298 38.5 75.5C38.5 61.702 49.9075 50.5 64 50.5C78.0925 50.5 89.5 61.702 89.5 75.5Z" stroke="white"/>
<path d="M89.5 75.5C89.5 89.298 78.0925 100.5 64 100.5C49.9075 100.5 38.5 89.298 38.5 75.5C38.5 61.702 49.9075 50.5 64 50.5C78.0925 50.5 89.5 61.702 89.5 75.5Z" stroke="white"/>
<path d="M89.5 75.5C89.5 89.298 78.0925 100.5 64 100.5C49.9075 100.5 38.5 89.298 38.5 75.5C38.5 61.702 49.9075 50.5 64 50.5C78.0925 50.5 89.5 61.702 89.5 75.5Z" stroke="white"/>
<path d="M89.5 75.5C89.5 89.298 78.0925 100.5 64 100.5C49.9075 100.5 38.5 89.298 38.5 75.5C38.5 61.702 49.9075 50.5 64 50.5C78.0925 50.5 89.5 61.702 89.5 75.5Z" stroke="white"/>
<path d="M89.5 75.5C89.5 89.298 78.0925 100.5 64 100.5C49.9075 100.5 38.5 89.298 38.5 75.5C38.5 61.702 49.9075 50.5 64 50.5C78.0925 50.5 89.5 61.702 89.5 75.5Z" stroke="white"/>
<circle cx="61.5" cy="5.5" r="2.5" fill="#C4C4C4"/>
<circle cx="40.5" cy="5.5" r="2.5" fill="#C4C4C4"/>
<circle cx="19.5" cy="5.5" r="2.5" fill="#C4C4C4"/>
</svg>
