<svg width="319" height="222" viewBox="0 0 319 222" fill="none" xmlns="http://www.w3.org/2000/svg">
<rect x="29" width="290" height="222" rx="7" fill="#025700"/>
<line x1="172" y1="150.975" x2="173" y2="70.975" stroke="#00FF38" stroke-width="4"/>
<path d="M172.501 57.5002L95.5005 36.0001L78.5005 15.5001M174 164L72 159.5L67.5001 59.5L52.0001 14M172.501 71.0001L97.5 62.5L64 15.5001" stroke="#00FF38" stroke-width="4"/>
<circle cx="172.5" cy="57.5" r="4.5" fill="#C4C4C4"/>
<circle cx="172.5" cy="70.5" r="4.5" fill="#C4C4C4"/>
<circle cx="65.5" cy="14.5" r="4.5" transform="rotate(90 65.5 14.5)" fill="#C4C4C4"/>
<circle cx="52.5" cy="14.5" r="4.5" transform="rotate(90 52.5 14.5)" fill="#C4C4C4"/>
<circle cx="92.0001" cy="15" r="4.5" transform="rotate(90 92.0001 15)" fill="#C4C4C4"/>
<circle cx="79.0001" cy="15" r="4.5" transform="rotate(90 79.0001 15)" fill="#C4C4C4"/>
<circle cx="119" cy="15" r="4.5" transform="rotate(90 119 15)" fill="#C4C4C4"/>
<circle cx="106" cy="15" r="4.5" transform="rotate(90 106 15)" fill="#C4C4C4"/>
<circle cx="145.5" cy="15.4999" r="4.5" transform="rotate(90 145.5 15.4999)" fill="#C4C4C4"/>
<circle cx="132.5" cy="15.4999" r="4.5" transform="rotate(90 132.5 15.4999)" fill="#C4C4C4"/>
<circle cx="172.5" cy="150.5" r="4.5" fill="#C4C4C4"/>
<circle cx="172.5" cy="163.5" r="4.5" fill="#C4C4C4"/>
<path d="M198.469 64.0039H204.27C205.074 64.0078 205.732 64.2617 206.244 64.7656C206.756 65.2656 207.043 65.9453 207.105 66.8047L207.117 67.1035C207.117 68.0371 206.865 68.7812 206.361 69.3359C205.857 69.8906 205.164 70.1719 204.281 70.1797H198.469V69.0664H204.246C204.863 69.0664 205.344 68.8965 205.688 68.5566C206.027 68.2168 206.197 67.7324 206.197 67.1035C206.197 66.4668 206.027 65.9805 205.688 65.6445C205.348 65.3047 204.869 65.1348 204.252 65.1348H198.469V64.0039ZM203.66 61.1035H207V62.2285H198.469V59.082C198.469 58.1484 198.707 57.418 199.184 56.8906C199.66 56.3594 200.291 56.0937 201.076 56.0937C201.904 56.0937 202.543 56.3535 202.992 56.873C203.438 57.3887 203.66 58.1289 203.66 59.0937V61.1035ZM202.74 61.1035V59.082C202.74 58.4805 202.6 58.0195 202.318 57.6992C202.033 57.3789 201.623 57.2187 201.088 57.2187C200.58 57.2187 200.174 57.3789 199.869 57.6992C199.564 58.0195 199.406 58.459 199.395 59.0176V61.1035H202.74Z" fill="white"/>
<path d="M207 167.01H198.469V164.602C198.469 163.859 198.633 163.203 198.961 162.633C199.289 162.062 199.756 161.623 200.361 161.314C200.967 161.002 201.662 160.844 202.447 160.84H202.992C203.797 160.84 204.502 160.996 205.107 161.309C205.713 161.617 206.178 162.061 206.502 162.639C206.826 163.213 206.992 163.883 207 164.648V167.01ZM199.395 165.885H206.08V164.701C206.08 163.834 205.811 163.16 205.271 162.68C204.732 162.195 203.965 161.953 202.969 161.953H202.471C201.502 161.953 200.75 162.182 200.215 162.639C199.676 163.092 199.402 163.736 199.395 164.572V165.885ZM207 152.578V153.709L200.426 158.004H207V159.135H198.469V158.004L205.072 153.697H198.469V152.578H207Z" fill="white"/>
</svg>
