<svg width="88" height="90" viewBox="0 0 88 90" fill="none" xmlns="http://www.w3.org/2000/svg">
<rect width="88" height="36" rx="11" fill="#C4C4C4"/>
<rect x="17" y="9" width="53" height="5" fill="#793300"/>
<path d="M18.2891 6.00391L19.1016 2.77344H19.8242L18.5938 7H18.0078L16.9805 3.79688L15.9805 7H15.3945L14.168 2.77344H14.8867L15.7188 5.9375L16.7031 2.77344H17.2852L18.2891 6.00391ZM21.2852 3.28516C21.6055 2.89193 22.0221 2.69531 22.5352 2.69531C23.4284 2.69531 23.8789 3.19922 23.8867 4.20703V7H23.1641V4.20312C23.1615 3.89844 23.0911 3.67318 22.9531 3.52734C22.8177 3.38151 22.6055 3.30859 22.3164 3.30859C22.082 3.30859 21.8763 3.37109 21.6992 3.49609C21.5221 3.62109 21.3841 3.78516 21.2852 3.98828V7H20.5625V1H21.2852V3.28516ZM27.5781 7C27.5365 6.91667 27.5026 6.76823 27.4766 6.55469C27.1406 6.90365 26.7396 7.07812 26.2734 7.07812C25.8568 7.07812 25.5143 6.96094 25.2461 6.72656C24.9805 6.48958 24.8477 6.1901 24.8477 5.82812C24.8477 5.38802 25.0143 5.04688 25.3477 4.80469C25.6836 4.5599 26.1549 4.4375 26.7617 4.4375H27.4648V4.10547C27.4648 3.85286 27.3893 3.65234 27.2383 3.50391C27.0872 3.35286 26.8646 3.27734 26.5703 3.27734C26.3125 3.27734 26.0964 3.34245 25.9219 3.47266C25.7474 3.60286 25.6602 3.76042 25.6602 3.94531H24.9336C24.9336 3.73438 25.0078 3.53125 25.1562 3.33594C25.3073 3.13802 25.5104 2.98177 25.7656 2.86719C26.0234 2.7526 26.306 2.69531 26.6133 2.69531C27.1003 2.69531 27.4818 2.81771 27.7578 3.0625C28.0339 3.30469 28.1771 3.63932 28.1875 4.06641V6.01172C28.1875 6.39974 28.237 6.70833 28.3359 6.9375V7H27.5781ZM26.3789 6.44922C26.6055 6.44922 26.8203 6.39062 27.0234 6.27344C27.2266 6.15625 27.3737 6.00391 27.4648 5.81641V4.94922H26.8984C26.013 4.94922 25.5703 5.20833 25.5703 5.72656C25.5703 5.95312 25.6458 6.13021 25.7969 6.25781C25.9479 6.38542 26.1419 6.44922 26.3789 6.44922ZM30 2.77344L30.0195 3.24219C30.3294 2.8776 30.7474 2.69531 31.2734 2.69531C31.8646 2.69531 32.2669 2.92188 32.4805 3.375C32.6211 3.17188 32.8034 3.00781 33.0273 2.88281C33.2539 2.75781 33.5208 2.69531 33.8281 2.69531C34.7552 2.69531 35.2266 3.1862 35.2422 4.16797V7H34.5195V4.21094C34.5195 3.90885 34.4505 3.68359 34.3125 3.53516C34.1745 3.38411 33.9427 3.30859 33.6172 3.30859C33.349 3.30859 33.1263 3.38932 32.9492 3.55078C32.7721 3.70964 32.6693 3.92448 32.6406 4.19531V7H31.9141V4.23047C31.9141 3.61589 31.6133 3.30859 31.0117 3.30859C30.5378 3.30859 30.2135 3.51042 30.0391 3.91406V7H29.3164V2.77344H30ZM37.0156 2.77344L37.0352 3.24219C37.3451 2.8776 37.763 2.69531 38.2891 2.69531C38.8802 2.69531 39.2826 2.92188 39.4961 3.375C39.6367 3.17188 39.819 3.00781 40.043 2.88281C40.2695 2.75781 40.5365 2.69531 40.8438 2.69531C41.7708 2.69531 42.2422 3.1862 42.2578 4.16797V7H41.5352V4.21094C41.5352 3.90885 41.4661 3.68359 41.3281 3.53516C41.1901 3.38411 40.9583 3.30859 40.6328 3.30859C40.3646 3.30859 40.1419 3.38932 39.9648 3.55078C39.7878 3.70964 39.6849 3.92448 39.6562 4.19531V7H38.9297V4.23047C38.9297 3.61589 38.6289 3.30859 38.0273 3.30859C37.5534 3.30859 37.2292 3.51042 37.0547 3.91406V7H36.332V2.77344H37.0156ZM44.7344 5.94141L45.7188 2.77344H46.4922L44.793 7.65234C44.5299 8.35547 44.112 8.70703 43.5391 8.70703L43.4023 8.69531L43.1328 8.64453V8.05859L43.3281 8.07422C43.5729 8.07422 43.763 8.02474 43.8984 7.92578C44.0365 7.82682 44.1497 7.64583 44.2383 7.38281L44.3984 6.95312L42.8906 2.77344H43.6797L44.7344 5.94141Z" fill="black"/>
<path d="M67 27L59.9998 60L44.4634 86.1871" stroke="#FF6F6F" stroke-width="5"/>
<path d="M43.5001 27L54 59L40 83" stroke="#828282" stroke-width="5"/>
<path d="M43.5001 27L54 59L40 83" stroke="#828282" stroke-width="5"/>
<path d="M19.5014 27.0164L48 59L34.5001 81" stroke="#828282" stroke-width="5"/>
<path d="M19.5014 27.0164L48 59L34.5001 81" stroke="#828282" stroke-width="5"/>
<rect x="41" y="14" width="6" height="15" fill="#575757"/>
<rect x="17" y="14" width="6" height="15" fill="#575757"/>
<rect x="64" y="14" width="6" height="15" fill="#575757"/>
<circle cx="35.5" cy="79.5" r="1.5" fill="#C4C4C4"/>
<circle cx="40.5" cy="81.5" r="1.5" fill="#C4C4C4"/>
<circle cx="45.5" cy="83.5" r="1.5" fill="#C4C4C4"/>
</svg>
